<svg xmlns="http://www.w3.org/2000/svg" version="1.0" width="592.000000pt" height="592.000000pt" viewBox="0 0 592.000000 592.000000" preserveAspectRatio="xMidYMid meet">

<g transform="translate(0.000000,592.000000) scale(0.100000,-0.100000)" fill="#a8a8a8" stroke="none">
<path d="M1561 4414 c0 -11 3 -14 6 -6 3 7 2 16 -1 19 -3 4 -6 -2 -5 -13z" fill="#a8a8a8"/>
<path d="M1541 4363 c-35 -86 -78 -300 -93 -463 l-11 -125 -54 -57 c-88 -93 -126 -196 -143 -386 -6 -59 -13 -131 -16 -159 -4 -32 -3 -53 3 -53 6 0 18 -30 28 -67 23 -87 61 -189 85 -231 19 -31 19 -42 8 -225 -6 -105 -14 -196 -19 -201 -4 -5 -4 -16 0 -25 5 -9 11 -99 14 -201 11 -316 45 -497 138 -730 81 -202 167 -360 265 -485 141 -181 172 -208 379 -328 158 -91 260 -126 471 -162 190 -33 321 -39 499 -26 293 22 482 71 700 182 215 110 308 185 485 390 94 109 216 320 283 489 72 182 151 488 173 674 l7 58 38 -6 c43 -7 84 6 117 36 36 35 25 43 -13 9 -38 -33 -88 -41 -118 -19 -15 12 -14 30 12 251 16 131 32 241 35 244 3 4 6 2 6 -3 1 -5 11 20 24 56 40 112 63 147 131 200 65 52 86 83 67 102 -16 16 -65 -8 -110 -53 -49 -49 -104 -151 -113 -209 -4 -25 -6 223 -6 550 1 436 -2 614 -11 665 -23 132 -54 255 -63 255 -4 0 -6 -6 -4 -12 20 -62 24 -352 5 -402 -5 -15 -10 -53 -10 -84 0 -41 -3 -53 -10 -42 -7 11 -10 7 -10 -17 0 -17 -5 -44 -10 -59 -6 -15 -11 -53 -11 -83 -1 -31 -6 -62 -11 -68 -6 -7 -8 -21 -6 -30 3 -10 -1 -49 -7 -88 -7 -38 -8 -79 -4 -91 4 -11 3 -43 -3 -70 -12 -60 -16 -174 -6 -174 5 0 8 -7 8 -15 0 -8 -7 -15 -16 -15 -8 0 -13 -4 -9 -9 3 -6 -2 -14 -12 -19 -16 -9 -15 -11 2 -28 17 -17 17 -17 11 3 -5 16 -1 25 14 33 20 11 21 10 11 -9 -14 -25 -14 -68 -1 -73 7 -2 4 -11 -5 -23 -16 -20 -16 -20 -10 1 3 13 -1 26 -12 35 -14 12 -16 12 -8 0 4 -8 9 -32 11 -55 2 -30 1 -36 -6 -21 -8 19 -9 19 -9 -2 -1 -14 5 -23 13 -23 12 0 12 -4 0 -30 -9 -16 -13 -34 -9 -40 3 -5 1 -18 -4 -28 -7 -13 -6 -23 2 -32 9 -10 9 -13 0 -17 -7 -2 -10 -10 -7 -18 3 -7 0 -24 -7 -37 -7 -13 -14 -31 -16 -42 -2 -10 -26 -62 -53 -115 -125 -244 -337 -394 -535 -378 -90 7 -139 25 -250 92 -67 41 -111 59 -175 74 -114 27 -254 41 -397 41 l-118 0 62 29 c45 22 66 39 79 63 23 45 34 96 27 130 -5 28 -6 27 -37 -24 -58 -98 -123 -123 -306 -121 -243 2 -352 59 -354 184 -1 27 -2 49 -3 49 -1 0 -10 -14 -19 -32 -11 -22 -15 -48 -12 -89 5 -71 41 -122 107 -153 l46 -21 -150 -6 c-216 -10 -268 -22 -440 -102 -99 -47 -118 -52 -191 -55 -68 -3 -89 0 -138 21 -113 47 -214 163 -254 289 -18 60 -24 129 -11 142 3 3 33 -8 67 -24 175 -88 435 -76 642 29 313 159 499 444 517 791 6 120 14 138 79 176 54 32 113 44 158 34 39 -9 133 -68 142 -90 4 -8 8 -64 9 -125 3 -133 17 -212 56 -327 63 -186 160 -312 334 -439 73 -54 202 -115 291 -140 110 -30 306 -37 394 -15 233 60 397 261 451 551 18 98 16 285 -5 368 -36 151 -125 271 -244 328 l-48 24 4 47 c4 38 -1 56 -24 95 -75 129 -256 266 -435 330 -133 47 -361 43 -461 -8 -50 -26 -62 -50 -54 -116 7 -61 23 -99 55 -127 23 -21 33 -20 155 13 165 44 279 17 476 -114 75 -50 81 -56 50 -51 -195 32 -404 41 -565 26 -228 -22 -945 -12 -1170 16 -82 10 -183 14 -317 12 -108 -2 -194 0 -191 5 10 16 128 90 191 120 61 29 76 32 157 31 73 -1 102 -6 154 -27 78 -33 104 -34 131 -5 39 42 54 163 25 204 -30 44 -156 83 -271 84 -81 0 -203 -32 -278 -74 -146 -81 -296 -256 -296 -343 0 -27 -4 -34 -27 -39 -16 -3 -45 -10 -67 -16 -21 -5 -41 -7 -44 -4 -3 3 -1 6 5 6 14 0 4 83 -11 92 -8 6 -8 8 0 8 7 0 12 40 13 119 1 66 6 141 12 168 5 26 10 58 10 70 -1 12 4 34 9 49 14 36 6 42 -9 7z m829 -548 c30 -10 72 -32 92 -49 20 -17 51 -42 69 -55 97 -74 115 -284 43 -500 -63 -193 -164 -328 -324 -433 -151 -100 -283 -141 -445 -141 -232 0 -376 108 -454 340 -27 79 -27 111 -1 63 11 -19 19 -44 20 -55 0 -11 11 -42 24 -70 l23 -50 12 57 c7 32 17 60 22 63 5 4 9 23 9 44 0 20 4 41 10 47 5 5 11 57 12 116 2 58 6 101 10 94 5 -6 8 -2 8 12 0 12 -6 22 -12 22 -9 0 -8 4 2 10 12 8 12 12 2 18 -10 7 -10 11 2 21 12 10 13 16 3 32 -8 13 -9 22 -2 27 6 4 11 45 12 92 1 47 4 92 6 100 13 39 14 59 3 63 -9 4 -11 -5 -8 -27 3 -17 2 -29 -1 -25 -4 3 -7 20 -9 37 -1 22 -7 31 -15 28 -29 -11 -10 5 27 24 23 12 43 27 47 35 7 19 116 53 225 70 123 20 513 13 588 -10z m1608 -20 c175 -25 329 -73 368 -116 9 -10 23 -19 29 -19 21 0 86 -79 111 -134 39 -86 55 -164 55 -277 1 -252 -70 -436 -220 -572 -173 -155 -527 -135 -788 45 -239 163 -365 399 -367 683 0 149 19 214 82 274 26 23 60 50 75 57 15 8 25 18 23 23 -8 12 101 43 184 52 96 10 316 2 448 -16z m-735 -8 c15 -2 10 -9 -21 -32 -22 -16 -52 -49 -67 -73 -26 -40 -29 -42 -49 -29 -121 79 -128 82 -211 82 -74 -1 -85 -4 -143 -38 -74 -43 -87 -45 -103 -15 -6 12 -31 43 -55 68 l-43 46 337 -3 c185 -2 345 -5 355 -6z m-1803 -239 c-1 -92 -4 -128 -15 -142 -8 -11 -15 -38 -15 -61 0 -23 -3 -44 -6 -48 -3 -3 -8 -43 -10 -89 -2 -46 -7 -103 -11 -126 l-8 -44 -33 64 c-31 62 -33 70 -34 184 -1 139 23 246 75 332 49 81 57 72 57 -70z m3207 -738 c-1 -12 -5 -16 -10 -11 -5 5 -6 14 -3 20 11 16 15 13 13 -9z m-1863 -656 c89 -13 125 -14 201 -5 112 13 207 14 295 2 36 -5 107 -12 158 -16 94 -7 117 -18 60 -29 -18 -3 -43 -8 -56 -11 -196 -38 -537 -50 -759 -26 -73 8 -131 17 -129 20 2 3 -24 7 -57 9 -34 2 -64 6 -67 10 -3 4 -30 9 -60 11 -53 3 -68 7 -59 15 6 6 257 34 314 35 27 0 99 -6 159 -15z m-491 -48 c32 -21 155 -53 287 -73 163 -26 588 -25 744 1 113 18 234 51 251 67 16 16 30 10 48 -20 23 -39 22 -108 -4 -184 -58 -173 -169 -267 -317 -267 -67 0 -113 21 -171 79 -48 48 -86 60 -217 68 -142 8 -221 -8 -276 -57 -64 -56 -105 -74 -168 -74 -97 0 -182 59 -229 158 -52 109 -59 227 -17 291 19 28 37 31 69 11z" fill="#a8a8a8"/>
<path d="M2530 3681 c0 -20 -1 -21 -16 -7 -8 9 -20 13 -26 10 -6 -4 -5 -10 3 -15 11 -8 11 -12 -4 -23 -16 -12 -14 -16 28 -50 25 -21 45 -32 45 -24 0 10 2 10 9 -1 14 -22 24 6 10 30 -9 17 -8 20 2 14 13 -9 10 -3 -28 54 -20 30 -23 31 -23 12z" fill="#a8a8a8"/>
<path d="M1940 3466 c-86 -15 -172 -60 -226 -118 -48 -51 -51 -60 -31 -77 10 -8 24 -1 60 32 45 42 172 115 182 105 3 -3 -3 -25 -14 -49 -28 -64 -35 -122 -21 -179 11 -46 14 -50 58 -64 144 -47 285 -61 340 -32 35 18 50 17 70 -2 8 -7 19 -11 26 -9 19 5 49 78 54 129 2 26 7 48 10 48 4 0 26 -19 49 -42 41 -40 43 -41 43 -18 0 21 -19 68 -20 49 0 -3 -23 17 -51 43 -106 103 -234 169 -364 188 -83 11 -82 11 -165 -4z m162 -73 c21 -19 24 -62 5 -87 -29 -40 -107 -9 -107 42 0 54 62 81 102 45z" fill="#a8a8a8"/>
<path d="M3287 3658 c-10 -5 -27 -11 -39 -13 -27 -6 -30 -9 -22 -29 4 -9 13 -15 20 -12 8 3 13 2 13 -2 -1 -4 -1 -15 0 -26 1 -17 3 -17 24 -4 12 8 35 18 50 22 32 8 27 22 -11 38 -25 9 -25 11 -8 17 16 6 17 9 5 13 -9 3 -23 2 -32 -4z" fill="#a8a8a8"/>
<path d="M3663 3415 c-164 -45 -374 -215 -349 -282 5 -12 15 -4 41 30 30 39 109 107 124 107 4 0 6 -33 6 -73 1 -51 7 -85 22 -119 l21 -46 68 -7 c81 -9 230 0 270 16 16 7 61 19 99 28 65 16 71 19 82 51 16 48 16 108 -2 166 -8 27 -15 51 -15 52 0 10 121 -65 164 -101 37 -30 50 -37 56 -26 29 46 -134 166 -277 203 -75 20 -238 20 -310 1z m39 -62 c39 -35 4 -108 -49 -101 -35 4 -71 53 -57 75 8 13 56 37 83 42 3 1 13 -6 23 -16z" fill="#a8a8a8"/>
<path d="M4721 4374 c0 -11 3 -14 6 -6 3 7 2 16 -1 19 -3 4 -6 -2 -5 -13z" fill="#a8a8a8"/>
<path d="M4725 4341 c-3 -5 -1 -12 5 -16 5 -3 10 1 10 9 0 18 -6 21 -15 7z" fill="#a8a8a8"/>
<path d="M4840 3189 c0 -5 5 -7 10 -4 6 3 10 8 10 11 0 2 -4 4 -10 4 -5 0 -10 -5 -10 -11z" fill="#a8a8a8"/>
<path d="M1300 2421 c0 -5 5 -13 10 -16 6 -3 10 -2 10 4 0 5 -4 13 -10 16 -5 3 -10 2 -10 -4z" fill="#a8a8a8"/>
</g>
</svg>