<svg xmlns="http://www.w3.org/2000/svg" version="1.0" preserveAspectRatio="xMidYMid meet" viewBox="136 349 302.37 366.13">

<g transform="translate(0.000000,1024.000000) scale(0.100000,-0.100000)" fill="#a8a8a8" stroke="none">
<path d="M3615 6699 c28 -55 31 -68 45 -234 5 -60 12 -121 14 -134 5 -22 4 -22 -12 -8 -23 21 -96 47 -131 47 -50 0 -134 -31 -164 -61 -24 -25 -28 -35 -23 -62 12 -59 26 -63 97 -28 34 17 78 31 97 31 35 0 34 -1 -26 -30 -68 -34 -122 -89 -154 -155 -15 -31 -25 -41 -30 -32 -6 9 -15 4 -33 -16 -14 -16 -23 -33 -20 -38 4 -5 -14 -9 -40 -9 -50 0 -77 -10 -112 -43 -27 -24 -25 -25 -47 35 -20 55 -80 126 -128 152 l-34 19 23 23 c15 16 23 35 23 59 0 31 -4 38 -32 49 -95 39 -217 27 -345 -35 -109 -52 -141 -101 -88 -135 17 -11 31 -8 101 21 86 36 168 59 158 44 -3 -5 -14 -9 -25 -9 -40 0 -128 -51 -173 -101 -146 -162 -101 -411 91 -505 80 -40 185 -40 264 -1 107 52 189 173 189 280 0 35 6 49 33 74 56 55 131 58 135 6 1 -15 9 -34 17 -43 14 -13 16 -13 21 8 9 34 22 26 35 -20 25 -95 87 -170 173 -209 54 -25 150 -25 215 0 l49 18 -5 -31 c-2 -17 -9 -49 -15 -71 -7 -22 -11 -43 -10 -47 3 -12 -39 -35 -76 -43 -22 -4 -53 0 -98 15 -66 22 -111 23 -198 4 l-29 -7 22 22 c16 16 21 33 21 70 0 28 -4 52 -9 55 -5 4 -7 -3 -4 -13 14 -56 -63 -100 -174 -101 -62 0 -75 3 -102 26 l-31 26 0 -29 c0 -33 25 -73 46 -73 8 0 14 -4 14 -9 0 -4 -44 -11 -99 -14 -107 -5 -156 -22 -231 -76 -37 -27 -51 -31 -106 -31 -80 0 -143 24 -228 84 -71 50 -160 151 -149 168 4 7 1 8 -7 3 -10 -6 -12 -4 -7 8 3 9 1 19 -5 23 -7 4 -8 3 -4 -4 4 -7 5 -12 2 -12 -3 0 -13 14 -22 31 -8 17 -11 28 -5 25 7 -4 8 -1 5 8 -3 9 -11 13 -16 10 -6 -4 -5 3 2 15 17 33 9 115 -40 376 -9 48 -37 107 -112 235 -15 25 -34 71 -43 103 -22 76 -27 231 -9 275 7 18 9 30 4 27 -15 -9 -51 -116 -71 -210 -22 -107 -25 -273 -7 -453 11 -109 15 -125 37 -145 17 -15 22 -17 19 -6 -4 9 -1 16 8 16 7 0 18 -14 23 -31 14 -43 33 -178 26 -184 -3 -3 -5 1 -5 9 0 14 -9 29 -58 89 -46 58 -142 84 -142 39 0 -14 16 -26 53 -43 57 -25 77 -47 123 -136 78 -152 91 -213 49 -232 -34 -15 -77 4 -122 56 -37 42 -36 34 1 -17 32 -44 70 -60 127 -52 l48 7 35 -54 c56 -87 243 -254 361 -323 24 -15 42 -32 40 -38 -2 -7 -6 -24 -9 -39 -6 -26 -10 -28 -54 -28 -53 0 -108 -24 -129 -57 -14 -21 -12 -23 26 -42 73 -38 201 -70 381 -96 25 -4 92 -20 150 -37 148 -42 318 -50 417 -20 38 12 98 40 133 63 36 23 78 47 94 54 28 12 27 13 -70 45 -54 18 -109 42 -122 54 l-23 22 64 41 c100 63 219 218 297 386 53 114 74 205 67 291 -6 64 -4 71 22 105 44 56 61 112 61 199 0 64 -5 87 -28 137 -26 54 -90 126 -121 136 -8 3 -16 36 -21 81 -13 113 -29 196 -52 263 -22 63 -85 195 -93 195 -3 0 6 -23 20 -51z m94 -496 c63 -20 125 -77 154 -141 30 -65 30 -188 1 -253 -23 -48 -82 -112 -125 -135 -135 -70 -294 -7 -354 139 -16 38 -16 39 5 32 34 -11 87 3 121 32 29 25 33 25 44 10 11 -15 13 -14 23 9 16 34 15 83 -2 117 -13 24 -13 27 0 27 29 0 81 -28 102 -54 21 -27 21 -27 32 -6 19 35 -26 93 -86 114 -85 29 -157 15 -218 -42 l-28 -27 20 41 c45 89 137 151 228 153 18 1 55 -7 83 -16z m-807 -101 c102 -45 168 -147 168 -257 0 -93 -24 -151 -90 -217 -61 -61 -124 -88 -205 -88 -188 0 -325 208 -256 390 62 162 233 239 383 172z m526 -109 c-2 -10 -14 -20 -28 -22 -25 -3 -25 -3 -6 18 23 26 39 27 34 4z m41 -567 c-2 -2 -44 -11 -93 -21 -50 -9 -95 -23 -102 -30 -29 -28 -177 -41 -309 -26 l-60 7 53 12 c29 6 106 17 171 23 66 6 154 17 198 24 76 13 150 19 142 11z m61 -70 c0 -54 -21 -109 -54 -142 -41 -41 -77 -50 -127 -34 l-39 13 29 15 c37 17 121 106 121 126 0 9 8 34 17 57 l16 42 19 -23 c10 -12 18 -36 18 -54z m-546 -46 c39 -7 129 -13 200 -14 115 -1 137 2 179 21 26 12 47 20 47 18 0 -2 -38 -29 -83 -60 -55 -37 -98 -58 -124 -62 -35 -4 -139 16 -218 42 -15 5 -12 0 9 -18 28 -25 118 -56 167 -58 20 -1 21 -2 4 -6 -11 -3 -30 -14 -42 -25 -33 -30 -110 -28 -167 6 -67 39 -110 121 -86 165 8 16 15 19 28 12 9 -4 48 -14 86 -21z" fill="#a8a8a8"/>
<path d="M3731 6171 c-11 -7 -12 -23 -7 -72 10 -90 27 -179 36 -179 4 0 12 -25 19 -56 7 -30 14 -54 16 -52 2 2 0 37 -6 78 -10 78 -4 124 12 99 5 -9 9 8 9 46 l-1 60 -18 -38 c-20 -44 -30 -34 -32 31 -2 63 -12 93 -28 83z" fill="#a8a8a8"/>
<path d="M2720 6019 c-98 -18 -210 -100 -210 -153 0 -37 10 -37 42 0 17 19 39 39 49 45 17 8 18 6 13 -20 -9 -43 13 -100 43 -112 43 -16 113 -11 140 11 14 11 32 20 41 20 9 0 13 -7 9 -20 -8 -29 0 -24 19 11 10 20 15 49 12 80 -1 27 0 49 3 49 10 0 79 -79 79 -91 0 -5 5 -7 11 -3 7 4 8 19 5 38 -21 102 -135 167 -256 145z m-3 -113 c-4 -9 -16 -16 -27 -16 -29 0 -38 30 -15 47 16 11 21 11 33 -1 8 -8 12 -22 9 -30z" fill="#a8a8a8"/>
<path d="M1872 5810 c0 -19 2 -27 5 -17 2 9 2 25 0 35 -3 9 -5 1 -5 -18z" fill="#a8a8a8"/>
<path d="M3310 5813 c0 -5 5 -15 10 -23 8 -12 10 -11 10 8 0 12 -4 22 -10 22 -5 0 -10 -3 -10 -7z" fill="#a8a8a8"/>
<path d="M3797 4023 c-42 -30 -87 -100 -92 -145 -3 -16 -9 -35 -14 -42 -6 -7 -4 -58 4 -141 12 -112 37 -378 48 -510 3 -36 4 -35 5 10 1 28 -7 144 -18 260 -26 270 -27 379 -4 428 10 20 21 37 24 37 4 0 47 -49 97 -108 50 -60 127 -142 172 -183 57 -52 81 -81 82 -99 1 -14 3 -18 6 -9 3 12 22 18 76 22 86 8 188 33 199 50 10 16 -23 32 -97 47 -90 18 -179 65 -232 124 -44 49 -113 174 -113 206 0 8 -9 30 -20 48 -25 41 -69 44 -123 5z" fill="#a8a8a8"/>
<path d="M2034 3920 c-22 -9 -116 -115 -199 -225 -102 -135 -221 -228 -359 -280 -93 -35 -116 -47 -116 -60 0 -16 27 -23 113 -31 51 -5 67 -11 68 -23 1 -9 4 -3 8 14 4 22 23 41 71 75 85 58 215 183 303 290 180 218 223 233 229 77 1 -48 2 -49 5 -11 3 31 10 44 29 54 35 19 31 53 -13 95 -30 29 -43 35 -77 34 -23 0 -50 -4 -62 -9z" fill="#a8a8a8"/>
<path d="M2131 3514 c0 -11 3 -14 6 -6 3 7 2 16 -1 19 -3 4 -6 -2 -5 -13z" fill="#a8a8a8"/>
<path d="M2122 3430 c0 -14 2 -19 5 -12 2 6 2 18 0 25 -3 6 -5 1 -5 -13z" fill="#a8a8a8"/>
<path d="M4081 3434 c0 -11 3 -14 6 -6 3 7 2 16 -1 19 -3 4 -6 -2 -5 -13z" fill="#a8a8a8"/>
<path d="M4071 3374 c0 -11 3 -14 6 -6 3 7 2 16 -1 19 -3 4 -6 -2 -5 -13z" fill="#a8a8a8"/>
<path d="M4061 3324 c0 -11 3 -14 6 -6 3 7 2 16 -1 19 -3 4 -6 -2 -5 -13z" fill="#a8a8a8"/>
<path d="M4052 3265 c0 -16 2 -22 5 -12 2 9 2 23 0 30 -3 6 -5 -1 -5 -18z" fill="#a8a8a8"/>
<path d="M4042 3210 c0 -14 2 -19 5 -12 2 6 2 18 0 25 -3 6 -5 1 -5 -13z" fill="#a8a8a8"/>
<path d="M4032 3145 c0 -16 2 -22 5 -12 2 9 2 23 0 30 -3 6 -5 -1 -5 -18z" fill="#a8a8a8"/>
<path d="M3752 3110 c0 -19 2 -27 5 -17 2 9 2 25 0 35 -3 9 -5 1 -5 -18z" fill="#a8a8a8"/>
</g>
</svg>