<svg xmlns="http://www.w3.org/2000/svg" version="1.0" preserveAspectRatio="xMidYMid meet" viewBox="2.39 47.17 234.44 208.83">
<metadata>
Created by potrace 1.16, written by Peter Selinger 2001-2019
</metadata>
<g transform="translate(0.000000,256.000000) scale(0.100000,-0.100000)" fill="#a8a8a8" stroke="none">
<path d="M698 2075 c-1 -11 -2 -27 -3 -35 0 -8 -5 -21 -10 -29 -10 -18 -9 -228 2 -296 7 -38 13 -49 25 -47 19 3 38 -50 38 -103 l0 -30 -19 28 c-20 32 -45 51 -78 61 -38 12 -28 -23 11 -39 40 -17 93 -96 112 -168 11 -42 10 -48 -4 -57 -15 -8 -14 -9 5 -10 15 0 32 -15 52 -44 17 -24 60 -68 97 -97 l66 -54 -66 -12 c-87 -16 -124 -37 -142 -78 -8 -19 -25 -42 -39 -51 -14 -9 -25 -26 -25 -38 0 -16 -10 -25 -37 -35 -48 -18 -125 -90 -176 -166 -86 -128 -180 -245 -296 -369 -66 -71 -131 -150 -145 -175 -33 -61 -48 -133 -40 -188 6 -43 7 -43 46 -43 l41 0 -7 40 c-6 39 -6 40 23 40 17 0 33 -5 36 -10 3 -5 23 -10 43 -10 53 0 117 -22 117 -40 0 -11 14 -16 58 -18 56 -3 57 -2 52 20 -5 19 1 27 27 43 52 30 113 91 191 189 69 87 72 89 75 61 4 -28 -13 -212 -25 -283 l-5 -32 242 0 242 0 -7 78 c-4 42 -12 80 -17 83 -6 4 -8 11 -4 17 9 14 -10 96 -23 100 -6 2 -11 18 -11 36 0 18 -11 54 -24 82 -13 27 -26 59 -30 71 -4 12 -29 40 -56 61 -41 32 -64 42 -137 57 -150 31 -241 91 -244 159 -1 17 -3 41 -4 54 -1 12 0 20 3 18 2 -3 13 6 24 19 11 14 25 25 33 25 7 0 18 7 25 15 11 13 17 10 46 -20 18 -19 38 -35 44 -35 6 0 8 -5 4 -12 -4 -6 -3 -8 4 -5 5 4 34 -5 62 -19 30 -15 62 -24 76 -21 13 2 22 1 19 -2 -2 -4 11 -7 30 -8 26 -1 44 -12 86 -54 29 -30 59 -70 66 -89 42 -107 63 -178 63 -215 0 -23 6 -50 14 -60 12 -16 16 -17 30 -6 9 7 16 28 17 45 1 67 13 70 44 13 29 -54 29 -55 17 -133 -7 -44 -12 -100 -12 -126 0 -36 -4 -48 -15 -48 -11 0 -15 -11 -15 -40 l0 -40 50 0 50 0 0 188 c-1 150 -4 191 -16 207 -11 15 -14 45 -13 120 1 81 -3 110 -21 154 -13 33 -17 58 -12 63 10 10 42 -70 42 -103 0 -10 5 -21 12 -25 6 -4 8 -3 4 4 -3 5 -2 12 3 14 5 1 16 26 24 53 15 46 15 47 10 10 -4 -22 -6 -48 -5 -57 0 -10 -3 -20 -9 -23 -17 -11 -9 -32 13 -31 21 1 22 -4 26 -72 2 -40 0 -81 -4 -90 -4 -9 -8 -19 -9 -22 -1 -3 -5 -12 -9 -22 -4 -9 -3 -33 3 -55 6 -21 11 -100 11 -175 l0 -138 195 0 c129 0 195 4 195 10 0 6 -7 71 -16 145 -8 74 -14 153 -12 176 l3 42 62 -76 c35 -42 76 -83 93 -92 35 -18 36 -29 10 -113 -29 -92 -29 -92 35 -92 l55 0 0 38 c1 48 28 103 60 119 15 7 19 13 10 13 -13 1 144 58 163 59 13 1 7 -46 -8 -59 -7 -6 -17 -33 -20 -58 -3 -26 -8 -62 -11 -79 -5 -33 -4 -33 34 -33 l40 0 22 96 c42 176 19 244 -145 428 -60 67 -136 167 -176 232 -72 115 -149 199 -195 210 -13 3 -24 9 -24 13 0 4 -9 17 -19 28 -11 12 -27 37 -35 57 -9 22 -26 41 -43 48 -15 7 -29 13 -31 14 -2 1 18 32 44 68 66 95 103 188 104 258 0 31 5 60 10 63 30 18 54 92 54 165 1 89 -20 134 -76 164 -33 18 -36 25 -42 75 -4 30 -12 75 -18 99 -10 41 -12 43 -20 22 -5 -14 -4 -28 3 -36 8 -9 8 -14 1 -14 -10 0 -8 -35 2 -66 2 -6 -14 -2 -35 9 -75 37 -187 -4 -175 -63 l5 -27 -100 -12 c-148 -16 -149 -16 -149 19 0 26 -5 30 -42 40 -66 18 -189 -11 -240 -57 -23 -20 -23 -49 -1 -61 15 -9 14 -11 -4 -21 -25 -13 -53 -79 -53 -124 0 -19 7 -58 16 -87 47 -158 219 -182 351 -50 49 48 73 111 73 190 0 62 11 80 51 80 35 0 46 -16 48 -67 0 -24 8 -51 16 -60 8 -10 31 -37 51 -60 54 -64 94 -85 179 -92 l73 -6 -15 -37 c-20 -49 -55 -62 -120 -42 -28 9 -63 12 -85 9 l-36 -6 3 38 c1 21 1 30 -2 20 -10 -41 -135 -64 -168 -31 -9 9 -18 14 -21 11 -8 -8 6 -47 17 -47 5 0 9 -4 9 -10 0 -5 -17 -10 -37 -10 -59 -1 -111 -16 -152 -44 -48 -34 -101 -34 -168 0 -73 36 -198 176 -176 198 4 3 1 6 -6 6 -8 0 -11 6 -7 16 3 8 2 12 -4 9 -9 -5 -3 53 6 64 2 2 -3 10 -11 18 -8 8 -15 31 -15 51 0 20 -16 75 -36 122 -66 157 -76 191 -71 224 3 18 1 39 -4 47 -7 11 -9 10 -11 -6z m945 -212 c-7 -2 -19 -2 -25 0 -7 3 -2 5 12 5 14 0 19 -2 13 -5z m192 -53 c62 -59 59 -213 -6 -276 -56 -53 -168 -40 -238 28 -54 53 -55 63 -10 64 22 1 48 9 59 19 10 9 23 14 28 11 14 -9 22 32 12 60 -8 20 -6 24 10 24 11 0 29 -9 40 -20 25 -25 30 -25 30 -2 0 47 -94 85 -154 63 -28 -11 -56 -1 -56 20 0 27 115 48 207 39 36 -4 60 -13 78 -30z m-674 -1 c-23 -4 -53 -11 -65 -14 -12 -2 -8 2 9 10 17 8 46 14 65 13 34 0 34 0 -9 -9z m346 -11 c-2 -9 -19 -12 -46 -10 -26 3 -51 -2 -65 -12 -22 -14 -25 -13 -41 4 -16 18 -15 19 31 23 108 8 126 7 121 -5z m-187 -21 c18 -12 19 -15 5 -21 -10 -4 -14 -2 -9 6 4 7 3 8 -4 4 -21 -13 -12 -27 15 -24 22 2 28 -2 35 -27 25 -86 -25 -202 -107 -250 -69 -41 -120 -50 -172 -30 -53 21 -84 63 -98 134 -27 131 18 188 169 217 82 15 136 12 166 -9z m207 -79 c-3 -7 -5 -2 -5 12 0 14 2 19 5 13 2 -7 2 -19 0 -25z m58 12 c-3 -5 -11 -10 -16 -10 -6 0 -7 5 -4 10 3 6 11 10 16 10 6 0 7 -4 4 -10z m-758 -122 c-3 -8 -6 -5 -6 6 -1 11 2 17 5 13 3 -3 4 -12 1 -19z m733 -240 c-19 -5 -53 -16 -75 -23 -43 -15 -77 -18 -170 -15 -89 2 -40 17 98 30 61 6 113 13 116 15 2 3 18 5 35 4 l31 -1 -35 -10z m90 -37 c0 -32 -32 -86 -60 -101 -12 -7 -33 -9 -47 -5 l-25 6 39 34 c25 21 44 49 52 75 10 34 15 39 27 29 8 -6 14 -23 14 -38z m-285 -30 c71 -6 154 0 190 13 11 4 4 -3 -15 -15 -19 -13 -37 -26 -40 -29 -16 -20 -68 -26 -120 -14 -67 16 -73 16 -66 5 3 -4 27 -14 52 -21 l47 -13 -24 -20 c-40 -32 -114 -5 -145 54 -21 42 -12 63 24 54 15 -4 59 -10 97 -14z m-481 -277 c4 -10 13 -13 26 -9 11 4 20 2 20 -4 0 -6 8 -11 19 -11 10 0 29 -8 42 -18 13 -10 65 -37 114 -61 50 -24 108 -53 130 -64 l40 -20 -38 39 c-21 21 -42 39 -45 39 -25 2 -51 18 -46 27 5 8 1 9 -11 5 -19 -8 -48 10 -40 23 3 5 0 12 -6 16 -8 5 -9 3 -4 -6 14 -22 -17 -6 -33 18 l-14 22 46 -16 c28 -10 56 -28 68 -45 20 -26 47 -42 33 -19 -9 14 -7 14 92 -20 49 -16 115 -32 146 -36 58 -7 67 -16 45 -47 -16 -21 -133 -26 -167 -8 -15 8 -21 9 -17 2 10 -15 -14 -14 -46 3 -33 18 -101 41 -110 38 -5 -1 -8 3 -8 8 0 6 -6 10 -14 10 -37 0 -240 111 -244 134 -4 21 14 21 22 0z m786 -64 c0 -5 -7 -10 -15 -10 -9 0 -18 -8 -22 -17 -12 -34 -116 -114 -130 -100 -2 3 15 20 38 38 23 19 58 49 78 66 38 34 51 40 51 23z m-870 -17 c0 5 17 -4 38 -20 20 -16 53 -36 72 -44 19 -9 51 -23 70 -32 38 -19 41 -19 -45 -3 -34 6 -86 32 -78 39 3 4 -3 7 -15 7 -21 0 -62 43 -62 64 0 6 5 4 10 -4 5 -8 10 -11 10 -7z m411 -50 c13 -16 12 -17 -3 -4 -10 7 -18 15 -18 17 0 8 8 3 21 -13z m629 -43 c0 -5 -2 -10 -4 -10 -3 0 -8 5 -11 10 -3 6 -1 10 4 10 6 0 11 -4 11 -10z m-793 -26 c-3 -3 -12 -4 -19 -1 -8 3 -5 6 6 6 11 1 17 -2 13 -5z m780 0 c-3 -3 -12 -4 -19 -1 -8 3 -5 6 6 6 11 1 17 -2 13 -5z"/>
<path d="M1770 1801 c0 -5 5 -13 10 -16 6 -3 10 -2 10 4 0 5 -4 13 -10 16 -5 3 -10 2 -10 -4z"/>
<path d="M1788 1695 c8 -41 16 -74 17 -73 1 2 5 35 7 73 3 41 2 62 -3 50 -8 -19 -8 -19 -15 3 -3 12 -9 22 -13 22 -4 0 -1 -34 7 -75z"/>
<path d="M1130 1731 c-73 -23 -120 -64 -120 -105 0 -18 3 -17 28 7 35 33 42 34 42 3 0 -47 9 -56 60 -56 27 0 52 5 55 11 4 6 13 8 21 5 17 -7 37 36 28 59 -10 25 13 17 34 -12 24 -33 35 -17 16 23 -25 51 -106 83 -164 65z m10 -66 c0 -8 -6 -15 -14 -15 -17 0 -28 14 -19 24 12 12 33 6 33 -9z"/>
<path d="M710 1366 c0 -3 9 -10 20 -16 11 -6 20 -8 20 -6 0 3 -9 10 -20 16 -11 6 -20 8 -20 6z"/>
<path d="M1018 733 c7 -3 16 -2 19 1 4 3 -2 6 -13 5 -11 0 -14 -3 -6 -6z"/>
<path d="M1380 477 c0 -9 10 -12 30 -9 35 5 30 22 -6 22 -13 0 -24 -6 -24 -13z"/>
<path d="M1402 425 c0 -16 2 -22 5 -12 2 9 2 23 0 30 -3 6 -5 -1 -5 -18z"/>
<path d="M1421 424 c0 -11 3 -14 6 -6 3 7 2 16 -1 19 -3 4 -6 -2 -5 -13z"/>
<path d="M1403 325 c0 -27 2 -38 4 -22 2 15 2 37 0 50 -2 12 -4 0 -4 -28z"/>
</g>
</svg>